<svg xmlns="http://www.w3.org/2000/svg" xmlns:xlink="http://www.w3.org/1999/xlink" width="307.177" height="297.699" viewBox="0 0 307.177 297.699">
  <defs>
    <style>
      .cls-1 {
        fill: none;
        stroke: #48aa78;
        stroke-width: 5px;
      }

      .cls-2 {
        filter: url(#_1608806_recycle_icon);
      }
    </style>
    <filter id="_1608806_recycle_icon" x="0" y="0" width="307.177" height="297.699" filterUnits="userSpaceOnUse">
      <feOffset dx="10" dy="3" input="SourceAlpha"/>
      <feGaussianBlur stdDeviation="3" result="blur"/>
      <feFlood flood-opacity="0.161"/>
      <feComposite operator="in" in2="blur"/>
      <feComposite in="SourceGraphic"/>
    </filter>
  </defs>
  <g class="cls-2" transform="matrix(1, 0, 0, 1, 0, 0)">
    <path id="_1608806_recycle_icon-2" data-name="1608806_recycle_icon" class="cls-1" d="M144.71,183.584l-2.354,57.763-.314,3.453-65.925-4.552A17.533,17.533,0,0,1,65.6,235.3a30.087,30.087,0,0,1-7.377-10.281,33.967,33.967,0,0,1-2.276-8.633,31.954,31.954,0,0,1,.628-10.2q1.177-5.808,1.884-8.633t3.375-10.046q2.668-7.22,2.982-8.319Q77.059,181.073,144.71,183.584ZM83.965,91.6l28.253,59.489L89.145,136.652a221.953,221.953,0,0,0-17.5,22.681,145.545,145.545,0,0,0-11.38,19.62q-3.767,8.241-6.2,14.833a54,54,0,0,0-2.9,9.889l-.628,3.3L20.709,150.936a16.822,16.822,0,0,1-2.825-8.79,18.293,18.293,0,0,1,.942-7.377l1.256-2.825q5.494-9.889,17.894-29.509L16,88.935Zm193.222,81.15L247.678,229.1a16.527,16.527,0,0,1-5.729,7.3,16.839,16.839,0,0,1-6.828,3.218l-2.825.628q-11.144,1.1-34.375,1.884l1.256,25.742-36.1-57.606,33.119-56.821,1.1,27.155q26.684,2.511,44.421.785t26.684-5.18ZM153.971,27.719q-7.377,9.889-41.6,68.279L62.618,66.646l-2.982-1.884L94.953,8.884a17.723,17.723,0,0,1,9.418-7.063A28.906,28.906,0,0,1,116.928.251a25.759,25.759,0,0,1,7.613,1.884,42.911,42.911,0,0,1,6.592,3.3,47.819,47.819,0,0,1,6.514,5.18q3.767,3.453,5.651,5.415t5.651,6.2Q152.715,26.464,153.971,27.719ZM256.782,75.907l33.276,56.978a20.259,20.259,0,0,1,1.962,11.929,29.336,29.336,0,0,1-4.316,11.615,26.842,26.842,0,0,1-5.18,5.808,47.918,47.918,0,0,1-5.965,4.395,42.72,42.72,0,0,1-7.613,3.453q-4.787,1.727-7.377,2.511t-8.084,2.2q-5.494,1.413-7.22,1.884-5.337-11.3-41.6-68.436L253.8,77.634ZM234.336,40.433l22.289-13.028L222.093,85.953l-65.768-3.139,23.7-13.5a230.156,230.156,0,0,0-11.772-26.056A157.253,157.253,0,0,0,156.4,23.874q-5.415-7.3-10.124-12.557a61.271,61.271,0,0,0-7.377-7.3l-2.668-2.041,63.57.157a16.419,16.419,0,0,1,9.1,1.648,18.157,18.157,0,0,1,6.122,4.473l1.727,2.354Q222.878,20.185,234.336,40.433Z" transform="translate(-6.55 8.39)"/>
  </g>
</svg>
