<svg xmlns="http://www.w3.org/2000/svg" width="158.512" height="158.512" viewBox="0 0 158.512 158.512">
  <defs>
    <style>
      .cls-1 {
        fill: #19283e;
        fill-rule: evenodd;
      }
    </style>
  </defs>
  <path id="_290120_account_avatar_man_profile_user_icon" data-name="290120_account_avatar_man_profile_user_icon" class="cls-1" d="M82.256,161.512a79.256,79.256,0,1,1,79.256-79.256A79.256,79.256,0,0,1,82.256,161.512Zm43.9-22.645c-.593-.872-1.34-1.955-1.94-2.8-1.045-1.487-2.091-2.974-3.027-4.446-.045-.068-5.216-7-23.841-7.85-6.48,0-11.19-4.861-11.2-11.571l-.121-3.525c0-.51-.06.559,0,0V104.9l3.774-3.774A54.478,54.478,0,0,0,98.843,95.6l.51-.351c2.193-1.393,5.257-4.325,5.548-5.446l.136-1.438c1.408-7.258,3.638-20.459,3.638-24.981,0-17.776-8.643-26.419-26.419-26.419-18.021,0-26.419,8.394-26.419,26.419,0,4.642,2.23,17.78,3.634,24.969l.132,1.328c.238,1.181,3.016,3.978,5.469,5.518l.37.234a72.367,72.367,0,0,0,9.265,5.691l3.774,3.774v3.774c.053.521,0-.551,0,0l-.125,3.525c0,6.7-4.7,11.564-10.881,11.564h-.011c-18.7.759-24.128,7.839-24.135,7.839-.951,1.495-1.993,2.978-3.046,4.469-.593.845-1.34,1.925-1.936,2.8a71.4,71.4,0,0,0,87.812,0ZM82.256,10.548a71.655,71.655,0,0,0-49.629,123.39c1.442-2.132,2.982-4.261,4.34-6.393,0,0,6.3-10.352,30.193-11.322,2.434,0,3.65-1.593,3.65-4.023h0c0-1.966,0-3.525,0-3.525,0-.491-.079-.932-.1-1.408a66.035,66.035,0,0,1-9.582-5.639S52.067,96.058,52.067,89.8c0,0-3.774-19.308-3.774-26.419,0-17.527,7.5-33.967,33.967-33.967,26.117,0,33.967,16.44,33.967,33.967,0,6.937-3.774,26.419-3.774,26.419,0,6.08-9.058,11.824-9.058,11.824a52.359,52.359,0,0,1-9.6,5.835c-.019.411-.087.789-.087,1.211,0,0,0,1.559,0,3.525h0c-.008,2.431,1.208,4.023,3.642,4.023,24.245,1.087,30.193,11.322,30.193,11.322,1.359,2.132,2.895,4.261,4.336,6.393A71.652,71.652,0,0,0,82.256,10.548Z" transform="translate(-3 -3)"/>
</svg>
