<svg xmlns="http://www.w3.org/2000/svg" width="83.685" height="122.657" viewBox="0 0 83.685 122.657">
  <defs>
    <style>
      .cls-1 {
        fill: #fff;
        fill-rule: evenodd;
      }
    </style>
  </defs>
  <path id="_290108_achievement_award_badge_medal_prize_icon" data-name="290108_achievement_award_badge_medal_prize_icon" class="cls-1" d="M87.062,53.53v11.2l-9.713,5.6-5.6,9.7H70.323s0,.008,0,.011v41.806c0,.011-.006.02-.006.031a2.7,2.7,0,0,1-2.754,2.751c-.008,0-.017.006-.028.006a2.726,2.726,0,0,1-2.16-1.1L50.816,108.984,36.254,123.547a2.722,2.722,0,0,1-2.16,1.1c-.011,0-.02-.006-.028-.006a2.7,2.7,0,0,1-2.754-2.751c0-.011-.006-.02-.006-.031V80.054s0-.008,0-.011H29.9l-5.608-9.7-9.71-5.6V53.53l-5.6-9.7,5.6-9.707V22.905l9.71-5.61L29.9,7.6H41.115l9.7-5.608L60.524,7.6H71.742l5.6,9.7,9.713,5.61v11.21l5.6,9.71ZM36.881,80.054v35.17l11.678-11.678a2.626,2.626,0,0,1,.265-.4,2.927,2.927,0,0,1,3.986,0,2.851,2.851,0,0,1,.265.4l11.678,11.678V80.054s0-.008,0-.011H60.527l-9.71,5.61-9.7-5.61H36.878S36.881,80.052,36.881,80.054ZM81.474,35.606V26.122l-8.216-4.746-4.735-8.2H59.03L50.822,8.432l-8.2,4.741H33.127l-4.741,8.2-8.219,4.746v9.487l-4.741,8.219,4.741,8.214v9.476l8.219,4.744,4.741,8.208h9.49l8.2,4.741,8.208-4.741h9.49l4.735-8.208,8.219-4.744V52.041l4.738-8.216Z" transform="translate(-8.974 -1.991)"/>
</svg>
