<svg xmlns="http://www.w3.org/2000/svg" width="139.527" height="122.657" viewBox="0 0 139.527 122.657">
  <defs>
    <style>
      .cls-1 {
        fill: #fff;
        fill-rule: evenodd;
      }
    </style>
  </defs>
  <path id="_290147_bank_cash_finance_money_payment_icon" data-name="290147_bank_cash_finance_money_payment_icon" class="cls-1" d="M137.494,126.657H4.033a3.033,3.033,0,0,1,0-6.066H137.494a3.033,3.033,0,1,1,0,6.066Zm-91-30.332a3.033,3.033,0,0,1,0,6.066H22.232a3.033,3.033,0,1,1,0-6.066h3.033V56.893H22.232a3.033,3.033,0,1,1,0-6.066H46.5a3.033,3.033,0,1,1,0,6.066H43.465V96.325ZM37.4,56.893H31.332V96.325H37.4ZM82.9,96.325a3.033,3.033,0,0,1,0,6.066H58.631a3.033,3.033,0,1,1,0-6.066h3.033V56.893H58.631a3.033,3.033,0,1,1,0-6.066H82.9a3.033,3.033,0,0,1,0,6.066H79.863V96.325ZM73.8,56.893H67.73V96.325H73.8Zm57.631,54.6a3.03,3.03,0,0,1-3.033,3.033H13.133a3.033,3.033,0,1,1,0-6.066H128.395A3.03,3.03,0,0,1,131.428,111.491ZM119.295,96.325a3.033,3.033,0,0,1,0,6.066H95.029a3.033,3.033,0,1,1,0-6.066h3.033V56.893H95.029a3.033,3.033,0,0,1,0-6.066h24.266a3.033,3.033,0,0,1,0,6.066h-3.033V96.325Zm-9.1-39.432h-6.066V96.325H110.2ZM7.066,38.694,70.764,4l63.7,34.694V44.76H7.066Zm113.869,0L70.764,12.754,20.4,38.694Z" transform="translate(-1 -4)"/>
</svg>
