<svg xmlns="http://www.w3.org/2000/svg" width="95.992" height="122.656" viewBox="0 0 95.992 122.656">
  <defs>
    <style>
      .cls-1 {
        fill: #fff;
        fill-rule: evenodd;
      }
    </style>
  </defs>
  <path id="_290144_building_office_finance_buildings_icon" data-name="290144_building_office_finance buildings_icon" class="cls-1" d="M6,123.656V51.662A10.666,10.666,0,0,1,16.666,41h0V30.331A5.335,5.335,0,0,1,22,25h5.333V3.666a2.666,2.666,0,1,1,5.333,0V25H38a5.335,5.335,0,0,1,5.333,5.333V41h0A10.666,10.666,0,0,1,54,51.662V72.994H72.661V57H83.327V49h16v8h2.666v66.661ZM38,33a2.666,2.666,0,0,0-2.666-2.666H24.665A2.666,2.666,0,0,0,22,33v8H38ZM48.663,51.662A5.335,5.335,0,0,0,43.33,46.33H16.666a5.335,5.335,0,0,0-5.333,5.333v66.661h37.33Zm24,26.664H54v40H72.661Zm24-16H77.994v56H96.659Zm-10.666,8H88.66a2.664,2.664,0,0,1,2.666,2.666V75.66a2.664,2.664,0,0,1-2.666,2.666H85.993a2.664,2.664,0,0,1-2.666-2.666V72.994A2.664,2.664,0,0,1,85.993,70.327Zm0,16H88.66a2.664,2.664,0,0,1,2.666,2.666v2.666a2.664,2.664,0,0,1-2.666,2.666H85.993a2.664,2.664,0,0,1-2.666-2.666V88.993A2.664,2.664,0,0,1,85.993,86.326Zm0,16H88.66a2.664,2.664,0,0,1,2.666,2.666v2.666a2.664,2.664,0,0,1-2.666,2.666H85.993a2.664,2.664,0,0,1-2.666-2.666v-2.666A2.664,2.664,0,0,1,85.993,102.325Zm-24-16h2.666a2.664,2.664,0,0,1,2.666,2.666v2.666a2.664,2.664,0,0,1-2.666,2.666H62a2.664,2.664,0,0,1-2.666-2.666V88.993A2.664,2.664,0,0,1,62,86.326Zm0,16h2.666a2.664,2.664,0,0,1,2.666,2.666v2.666a2.664,2.664,0,0,1-2.666,2.666H62a2.664,2.664,0,0,1-2.666-2.666v-2.666A2.664,2.664,0,0,1,62,102.325Zm-24,8H35.331a2.664,2.664,0,0,1-2.666-2.666v-2.666a2.666,2.666,0,0,1,2.666-2.666H38a2.666,2.666,0,0,1,2.666,2.666v2.666A2.664,2.664,0,0,1,38,110.324Zm0-16H35.331a2.664,2.664,0,0,1-2.666-2.666V88.993a2.666,2.666,0,0,1,2.666-2.666H38a2.666,2.666,0,0,1,2.666,2.666v2.666A2.664,2.664,0,0,1,38,94.325Zm0-16H35.331a2.664,2.664,0,0,1-2.666-2.666V72.994a2.666,2.666,0,0,1,2.666-2.666H38a2.666,2.666,0,0,1,2.666,2.666V75.66A2.664,2.664,0,0,1,38,78.327Zm0-16H35.331a2.664,2.664,0,0,1-2.666-2.666V57a2.666,2.666,0,0,1,2.666-2.666H38A2.666,2.666,0,0,1,40.664,57v2.666A2.664,2.664,0,0,1,38,62.328Zm-13.332,48H22a2.664,2.664,0,0,1-2.666-2.666v-2.666A2.664,2.664,0,0,1,22,102.325h2.666a2.664,2.664,0,0,1,2.666,2.666v2.666A2.664,2.664,0,0,1,24.665,110.324Zm0-16H22a2.664,2.664,0,0,1-2.666-2.666V88.993A2.664,2.664,0,0,1,22,86.326h2.666a2.664,2.664,0,0,1,2.666,2.666v2.666A2.664,2.664,0,0,1,24.665,94.325Zm0-16H22a2.664,2.664,0,0,1-2.666-2.666V72.994A2.666,2.666,0,0,1,22,70.327h2.666a2.666,2.666,0,0,1,2.666,2.666V75.66A2.664,2.664,0,0,1,24.665,78.327Zm0-16H22a2.664,2.664,0,0,1-2.666-2.666V57A2.666,2.666,0,0,1,22,54.329h2.666A2.666,2.666,0,0,1,27.332,57v2.666A2.664,2.664,0,0,1,24.665,62.328Z" transform="translate(-6 -1)"/>
</svg>
