<svg xmlns="http://www.w3.org/2000/svg" width="197.069" height="158.512" viewBox="0 0 197.069 158.512">
  <defs>
    <style>
      .cls-1 {
        fill: #19283e;
        fill-rule: evenodd;
      }
    </style>
  </defs>
  <path id="_290119_card_id_identification_identity_profile_icon" data-name="290119_card_id_identification_identity_profile_icon" class="cls-1" d="M180.933,163.512H18.136A17.137,17.137,0,0,1,1,146.376V56.409A17.137,17.137,0,0,1,18.136,39.273H82.4V22.136a17.136,17.136,0,1,1,34.273,0V39.273h64.262a17.137,17.137,0,0,1,17.136,17.136v89.966A17.137,17.137,0,0,1,180.933,163.512ZM69.606,131.33v.017c-.017,0-.077-3.346-.077-3.346a48.066,48.066,0,0,0,8.7-5.9c2.172-1.786,3.175-5.835,3.175-5.835a144.062,144.062,0,0,0,1.02-15.864c0-8.834-4.425-18.336-17.166-18.336v0c-12.741,0-17.166,9.506-17.166,18.336a145.122,145.122,0,0,0,1.02,15.864s1,4.048,3.175,5.835a48.066,48.066,0,0,0,8.7,5.9s-.06,3.346-.077,3.346v-.017s.124,4.91.124,6.37c0,5.835-5.848,8.645-9.524,8.645H51.5c-11.109.484-13.731,4.181-13.752,4.216a20.893,20.893,0,0,0-2.481,4.387H95.259a19.95,19.95,0,0,0-2.493-4.378c-.021-.039-2.643-3.731-13.752-4.216H79c-3.671,0-9.524-2.806-9.524-8.645C69.477,136.24,69.606,131.33,69.606,131.33ZM108.1,22.136a8.568,8.568,0,1,0-17.136,0v25.7a8.568,8.568,0,1,0,17.136,0Zm81.4,34.273a8.571,8.571,0,0,0-8.568-8.568H116.671a17.136,17.136,0,0,1-34.273,0H18.136a8.571,8.571,0,0,0-8.568,8.568v89.966a8.571,8.571,0,0,0,8.568,8.568h7.7a46.444,46.444,0,0,1,4.97-9.6c.107-.06,3.633-7.45,21.412-7.669.026-.09.043-4.464.094-4.4a31.215,31.215,0,0,1-4.5-3.5c-1.092-.668-4.974-4.408-6.221-11.066C41.215,116.4,39.5,105.441,39.5,100.87c0-13.585,5.419-27.337,25.5-27.337h.518c20.084,0,25.5,13.752,25.5,27.337,0,4.571-1.718,15.526-2.091,17.848-1.247,6.658-5.128,10.4-6.221,11.066a30.463,30.463,0,0,1-4.5,3.5c.056-.064.073,4.314.094,4.4,17.783.218,21.309,7.609,21.412,7.669a46.443,46.443,0,0,1,4.97,9.6h76.249a8.571,8.571,0,0,0,8.568-8.568ZM168.08,94.966H116.671a4.284,4.284,0,1,1,0-8.568H168.08a4.284,4.284,0,0,1,0,8.568ZM116.671,112.1h8.568a4.284,4.284,0,1,1,0,8.568h-8.568a4.284,4.284,0,0,1,0-8.568Zm0,17.136h25.7a4.284,4.284,0,1,1,0,8.568h-25.7a4.284,4.284,0,1,1,0-8.568Zm17.136-12.852a4.28,4.28,0,0,1,4.284-4.284h17.136a4.284,4.284,0,0,1,0,8.568H138.092A4.28,4.28,0,0,1,133.808,116.387ZM95.251,22.136h8.568V30.7H95.251Z" transform="translate(-1 -5)"/>
</svg>
