<svg xmlns="http://www.w3.org/2000/svg" width="141.055" height="122.657" viewBox="0 0 141.055 122.657">
  <defs>
    <style>
      .cls-1 {
        fill: #fff;
        fill-rule: evenodd;
      }
    </style>
  </defs>
  <path id="_290121_computer_desktop_monitor_computer_screen_icon" data-name="290121_computer_desktop_monitor_computer screen_icon" class="cls-1" d="M129.789,99.059H87.458c1.825,10.122,7.89,17.086,13.5,21.465h7.372a3.066,3.066,0,1,1,0,6.133H34.731a3.066,3.066,0,0,1,0-6.133H42.1c5.6-4.379,11.674-11.343,13.5-21.465H13.266A12.266,12.266,0,0,1,1,86.793V16.266A12.266,12.266,0,0,1,13.266,4H129.789a12.266,12.266,0,0,1,12.266,12.266V86.793A12.266,12.266,0,0,1,129.789,99.059ZM51.28,120.524H91.772A39.087,39.087,0,0,1,81.165,99.059H61.887A39.087,39.087,0,0,1,51.28,120.524ZM135.922,16.266a6.135,6.135,0,0,0-6.133-6.133H13.266a6.135,6.135,0,0,0-6.133,6.133V74.528H135.922Zm0,64.395H7.133v6.133a6.135,6.135,0,0,0,6.133,6.133H129.789a6.135,6.135,0,0,0,6.133-6.133Zm-64.395,9.2a3.066,3.066,0,1,1,3.066-3.066A3.064,3.064,0,0,1,71.528,89.86Z" transform="translate(-1 -4)"/>
</svg>
