<svg xmlns="http://www.w3.org/2000/svg" width="338.135" height="44" viewBox="0 0 338.135 44">
  <defs>
    <style>
      .cls-1 {
        fill: #48aa78;
      }

      .cls-2 {
        fill: #fff;
        font-size: 33px;
        font-family: SegoeUI-Semibold, Segoe UI;
        font-weight: 600;
        letter-spacing: 0.021em;
      }
    </style>
  </defs>
  <g id="Grupo_1" data-name="Grupo 1" transform="translate(-60 -34)">
    <g id="_2739100_world_earth_global_icon" data-name="2739100_world_earth_global_icon" transform="translate(60 38.576)">
      <path id="Trazado_1" data-name="Trazado 1" class="cls-1" d="M391.72,152.689c.5-.108-.057-1.155-.5-1.263-.33-.057-.933.5-.882.825S391.225,152.854,391.72,152.689Z" transform="translate(-372.908 -146.362)"/>
      <path id="Trazado_2" data-name="Trazado 2" class="cls-1" d="M70.173,53.3A17.878,17.878,0,1,0,88.051,71.178,17.912,17.912,0,0,0,70.173,53.3ZM84.751,71.178a14.586,14.586,0,0,1-8.637,13.309,22.987,22.987,0,0,1-3.522.165,4.107,4.107,0,0,0-3.3,1.1c-.552-.057-1.155-.108-1.707-.222-.108-.057-.222-.108-.33-.165a3.245,3.245,0,0,0-2.475-.66,14.622,14.622,0,0,1-9.133-13.531,14.2,14.2,0,0,1,1.263-5.941c.882,3.244-1.263,3.409-1.263,5.941,0,1.65,1.1,4.4,2.749,6.931,1.872,2.805,4.29,5.224,5.172,5.007,1.593-.5-3.63-1.263-.387-7.2,3.244-6-4.234-2.037-5.337-10.231-.387-2.97,1.65-2.088,3.135-4.29,1.1-1.707,3.3-2.088,3.027-3.3a12.322,12.322,0,0,1,2.805-.99c-1.047.933-1.98,1.707.165,1.263,2.367-.5,3.574-.933,3.739-1.65a14.172,14.172,0,0,1,3.739.6c-.882-.108-2.532-.108-2.584,1.047-.108,1.593-.33,2.2-1.1,2.367s-.933.387-.933.717c.057.99.99,1.212,2.532,0s1.98.387,3.192.66,1.047-1.212,2.037-.825,2.2,2.532-.882,2.31c-3.079-.165-4.62-1.047-6.874.108-3.192,1.593-2.64,6.327.717,6.271,2.749,0,3.522.108,4.4,3.027s-.6,3.96.939,6.214c1.542,2.367,5.172-4.234,5.059-6.436s2.862-3.244,1.212-5.832c-1.65-2.532.33-2.532,1.758-1.047A18.348,18.348,0,0,1,84.751,71.178Z" transform="translate(-52.3 -53.3)"/>
      <path id="Trazado_3" data-name="Trazado 3" class="cls-1" d="M600.157,459.494c.768.273,2.749-3.852,1.872-3.465C601.091,456.416,599.549,459.278,600.157,459.494Z" transform="translate(-571.775 -435.237)"/>
    </g>
    <text id="CareCompany" class="cls-2" transform="translate(111.135 34)"><tspan x="0" y="36">CareCompany</tspan></text>
  </g>
</svg>
