<svg xmlns="http://www.w3.org/2000/svg" width="153.135" height="27" viewBox="0 0 153.135 27">
  <defs>
    <style>
      .cls-1 {
        fill: #48aa78;
      }

      .cls-2 {
        font-size: 20px;
        font-family: SegoeUI-Bold, Segoe UI;
        font-weight: 700;
        letter-spacing: -0.063em;
      }
    </style>
  </defs>
  <g id="Grupo_1" data-name="Grupo 1" transform="translate(-65 -33.9)">
    <g id="_2739100_world_earth_global_icon" data-name="2739100_world_earth_global_icon" transform="translate(65 35.789)">
      <path id="Trazado_1" data-name="Trazado 1" class="cls-1" d="M391.309,152.311c.348-.076-.04-.811-.348-.887-.232-.04-.655.348-.619.579S390.961,152.427,391.309,152.311Z" transform="translate(-378.098 -147.868)"/>
      <path id="Trazado_2" data-name="Trazado 2" class="cls-1" d="M64.852,53.3A12.555,12.555,0,1,0,77.407,65.855,12.579,12.579,0,0,0,64.852,53.3ZM75.089,65.855A10.243,10.243,0,0,1,69.023,75.2a16.143,16.143,0,0,1-2.473.116,2.884,2.884,0,0,0-2.318.771c-.387-.04-.811-.076-1.2-.156-.076-.04-.156-.076-.232-.116a2.279,2.279,0,0,0-1.738-.464,10.269,10.269,0,0,1-6.413-9.5,9.972,9.972,0,0,1,.887-4.172c.619,2.278-.887,2.394-.887,4.172a10.708,10.708,0,0,0,1.93,4.867c1.315,1.97,3.013,3.668,3.632,3.516,1.119-.348-2.549-.887-.272-5.059,2.278-4.212-2.973-1.43-3.748-7.185-.272-2.086,1.159-1.467,2.2-3.013.771-1.2,2.318-1.467,2.126-2.318a8.653,8.653,0,0,1,1.97-.7c-.735.655-1.391,1.2.116.887,1.662-.348,2.51-.655,2.625-1.159a9.952,9.952,0,0,1,2.625.424c-.619-.076-1.778-.076-1.814.735-.076,1.119-.232,1.546-.771,1.662s-.655.272-.655.5c.04.7.7.851,1.778,0s1.391.272,2.242.464.735-.851,1.43-.579,1.546,1.778-.619,1.622c-2.162-.116-3.245-.735-4.827.076-2.242,1.119-1.854,4.443.5,4.4,1.93,0,2.473.076,3.089,2.126s-.424,2.781.659,4.364c1.083,1.662,3.632-2.973,3.553-4.519s2.01-2.278.851-4.1c-1.159-1.778.232-1.778,1.235-.735A12.885,12.885,0,0,1,75.089,65.855Z" transform="translate(-52.3 -53.3)"/>
      <path id="Trazado_3" data-name="Trazado 3" class="cls-1" d="M600.116,458.455c.54.192,1.93-2.705,1.315-2.434C600.772,456.293,599.689,458.3,600.116,458.455Z" transform="translate(-580.184 -441.42)"/>
    </g>
    <text id="CareCompany" class="cls-2" transform="translate(96.135 33.9)"><tspan x="0" y="22">CareCompany</tspan></text>
  </g>
</svg>
